<svg id="Camada_1" data-name="Camada 1" xmlns="http://www.w3.org/2000/svg" xmlns:xlink="http://www.w3.org/1999/xlink" viewBox="0 0 48 48"><defs><style>.cls-1{fill:#dadada;}.cls-2{mask:url(#mask);}.cls-3{fill:#07b0ff;}.cls-4{filter:url(#luminosity-noclip);}</style><filter id="luminosity-noclip" x="4.97" y="10.83" width="38.05" height="26.33" filterUnits="userSpaceOnUse" color-interpolation-filters="sRGB"><feFlood flood-color="#fff" result="bg"/><feBlend in="SourceGraphic" in2="bg"/></filter><mask id="mask" x="4.97" y="10.83" width="38.05" height="26.33" maskUnits="userSpaceOnUse"><g class="cls-4"><path class="cls-1" d="M22.81,30a36,36,0,0,1-9.57,6.24l-.17.07c-2.94,1.15-5.37,1.22-6.81-.05l-.16-.15a4,4,0,0,1-.27-.31l-.06-.08-.06-.09,0-.09-.06-.08a.41.41,0,0,0,0-.09l-.06-.12,0-.08c-.07-.16-.14-.33-.2-.5l-.06-.2c0-.12-.06-.24-.08-.36a.29.29,0,0,1,0-.09.64.64,0,0,1,0-.07.25.25,0,0,0,0-.08s0-.08,0-.12a.2.2,0,0,0,0-.07s0-.08,0-.12,0-.09,0-.13H5a.57.57,0,0,0,0-.13v-.1c0-.15,0-.31,0-.47s0-.11,0-.17v-.24a.62.62,0,0,0,0-.13.13.13,0,0,1,0-.06V32c0-.05,0-.1,0-.15s0-.1,0-.15,0-.07,0-.1,0-.09,0-.13,0-.09,0-.14h0l0-.23.06-.35,0-.16,0-.18a.75.75,0,0,0,0-.16l0-.14c0-.06,0-.12,0-.18s0-.1,0-.16,0-.22.08-.33a.19.19,0,0,0,0-.08l.06-.19,0-.1a1.66,1.66,0,0,1,.06-.21l.07-.25.06-.17c0-.1.06-.2.1-.3l.06-.19c0-.07,0-.14.07-.21a.78.78,0,0,0,0-.14c0-.12.09-.24.13-.35l0,0c.08-.23.18-.46.27-.69l.15-.35c.18-.45.39-.9.61-1.36l.09-.19,0-.08.13-.28,0,0,.18-.37L8.1,23l.21-.38.45-.8.12-.2s0,0,0,0a.21.21,0,0,1,0-.06l0-.08a.21.21,0,0,0,0-.06l.05-.08.08-.12.07-.11a2.39,2.39,0,0,1,.13-.21c.11-.17.23-.34.35-.5a16.42,16.42,0,0,0-.59,2.32h0l-.06.15C6.7,27.93,6.2,32.17,8.25,34a4.61,4.61,0,0,0,3.67.89l.17,0c2.82-.38,6.52-2.25,10.42-5.25Z"/><path class="cls-1" d="M39.31,19.68,25,31.15a.21.21,0,0,1-.28,0L22,27.74,36.41,16.22h.06a2.84,2.84,0,0,0,2.83,3.45Z"/><path class="cls-1" d="M28.7,32.82,26.43,30l6.29-5v4.56a.67.67,0,0,1-.26.54L29,32.85A.2.2,0,0,1,28.7,32.82Z"/><path class="cls-1" d="M18,27.54h7.07a0,0,0,0,1,0,0v.37a.71.71,0,0,1-.71.71H18.76a.71.71,0,0,1-.71-.71v-.37a0,0,0,0,1,0,0Z" transform="translate(30.02 -6.31) rotate(51.34)"/></g></mask></defs><g class="cls-2"><line class="cls-3" x1="23.28" y1="32.27" x2="23.05" y2="32.04"/><path class="cls-3" d="M8.9,21.6a.21.21,0,0,1,0-.06Z"/><path class="cls-3" d="M22.81,30a36,36,0,0,1-9.57,6.24l-.17.07c-2.94,1.15-5.37,1.22-6.81-.05l-.16-.15a4,4,0,0,1-.27-.31l-.06-.08-.06-.09,0-.09-.06-.08a.41.41,0,0,0,0-.09l-.06-.12,0-.08c-.07-.16-.14-.33-.2-.5l-.06-.2c0-.12-.06-.24-.08-.36a.29.29,0,0,1,0-.09.64.64,0,0,1,0-.07.25.25,0,0,0,0-.08s0-.08,0-.12a.2.2,0,0,0,0-.07s0-.08,0-.12,0-.09,0-.13H5a.57.57,0,0,0,0-.13v-.1c0-.15,0-.31,0-.47s0-.11,0-.17v-.24a.62.62,0,0,0,0-.13.13.13,0,0,1,0-.06V32c0-.05,0-.1,0-.15s0-.1,0-.15,0-.07,0-.1,0-.09,0-.13,0-.09,0-.14h0l0-.23.06-.35,0-.16,0-.18a.75.75,0,0,0,0-.16l0-.14c0-.06,0-.12,0-.18s0-.1,0-.16,0-.22.08-.33a.19.19,0,0,0,0-.08l.06-.19,0-.1a1.66,1.66,0,0,1,.06-.21l.07-.25.06-.17c0-.1.06-.2.1-.3l.06-.19c0-.07,0-.14.07-.21a.78.78,0,0,0,0-.14c0-.12.09-.24.13-.35l0,0c.08-.23.18-.46.27-.69l.15-.35c.18-.45.39-.9.61-1.36l.09-.19,0-.08.13-.28,0,0,.18-.37L8.1,23l.21-.38.45-.8.12-.2s0,0,0,0a.21.21,0,0,1,0-.06l0-.08a.21.21,0,0,0,0-.06l.05-.08.08-.12.07-.11a2.39,2.39,0,0,1,.13-.21c.11-.17.23-.34.35-.5a16.42,16.42,0,0,0-.59,2.32h0A17.17,17.17,0,0,0,8.9,24.5l0,.05h0c-1.33,3.18-1.59,5.77-.34,6.88a2.65,2.65,0,0,0,1.75.6h.11c2.37,0,6-1.95,9.84-5.22l2.28,2.78Z"/><path class="cls-3" d="M43,11.9l-2.1,4.53-3.62-4.52,4.87-1.06a1.07,1.07,0,0,1,.25,0l.15,0a.81.81,0,0,1,.36.25A.73.73,0,0,1,43,11.9Z"/><path class="cls-3" d="M39.31,19.68,25,31.15a.21.21,0,0,1-.28,0L22,27.74,36.41,16.22h.06a2.84,2.84,0,0,0,2.83,3.45Z"/><path class="cls-3" d="M39.31,19.68,25,31.15a.21.21,0,0,1-.28,0L22,27.74,36.41,16.22h.06a2.84,2.84,0,0,0,2.83,3.45Z"/><path class="cls-3" d="M36.41,16.22,22,27.74l-2.63-3.29a.2.2,0,0,1,0-.28L33.68,12.74a2.84,2.84,0,0,0,.83,2.72h0a3.61,3.61,0,0,0,.44.33l.12.07a3.35,3.35,0,0,0,.38.18,3,3,0,0,0,.69.16Z"/><path class="cls-3" d="M18.58,20.17,20.85,23l6.29-5-4.45-1a.67.67,0,0,0-.58.13l-3.5,2.8A.2.2,0,0,0,18.58,20.17Z"/><path class="cls-3" d="M28.7,32.82,26.43,30l6.29-5v4.56a.67.67,0,0,1-.26.54L29,32.85A.2.2,0,0,1,28.7,32.82Z"/><path class="cls-3" d="M18,27.54h7.07a0,0,0,0,1,0,0v.37a.71.71,0,0,1-.71.71H18.76a.71.71,0,0,1-.71-.71v-.37a0,0,0,0,1,0,0Z" transform="translate(30.02 -6.31) rotate(51.34)"/><path class="cls-3" d="M9.25,35.89l0-.12.06,0A.83.83,0,0,0,9.25,35.89Z"/><path class="cls-3" d="M9.44,21.6l0-.06Z"/><path class="cls-3" d="M9.78,35.89l0-.12.06,0S9.79,35.84,9.78,35.89Z"/></g></svg>